/* XPM */
static char * tile_0030_xpm[] = {
"16 16 5 1",
" 	c #DC3439",
".	c #D9A482",
"+	c #FFEFE3",
"@	c #FC683B",
"#	c #FCDFCD",
"################",
"################",
"################",
"################",
"######@@@@######",
"####@++@@@@@####",
"### @++@@@+@ ###",
"### @@@@@@@@ ###",
"######++++######",
"#######..#######",
"#######..#######",
"#######+.#######",
"#######.+#######",
"#######+.#######",
"#######++#######",
"#######++#######"};
