/* XPM */
static char * player_xpm[] = {
"16 16 6 1",
" 	c None",
".	c #000000",
"+	c #FCDFCD",
"@	c #434A5F",
"#	c #0197C6",
"$	c #2CC5F6",
"                ",
"                ",
"   $$  $$       ",
"   $$$ $$$      ",
"    $$  ##      ",
"    $$$$$$$     ",
"    $$$$$$$$    ",
"    $$$@$$$@    ",
"    $$$@$$$@    ",
"    $$$$###$    ",
"    $$$$$#$$    ",
"  $$$$$$$$$$#   ",
" $$$$$$$$$$$#$  ",
" $$+$$$$$$$$ $  ",
"    $$$$$$$$    ",
"    ##    ##    "};
